# xmcd CD database file
# Copyright (C) 1997 Ti Kan
# 
# Track frame offsets:
#     182
#     22857
#     39642
#     56142
#     72985
#     90557
#     117322
#     137405
#     156357
#     171720
#     186832
#     208230
#     226570
#     243192
#     264612
#     279370
# 
# Disc length: 3976 seconds
# 
# Revision: 1
# Processed by: cddbd v1.4b41PL1 Copyright (c) Steve Scherf et al.
# Submitted via: DiscPlay 4.0.4
# 
DISCID=e10f8610
DTITLE=Chris Norman - Diamond Star Collection
DYEAR=1900
DGENRE=
TTITLE0=Midnight Lady
TTITLE1=Some Hearts Are Diamonds
TTITLE2=Chain reaction
TTITLE3=No Arms Can Ever Hold You
TTITLE4=Ordinary Heart
TTITLE5=Sarah (You Take My Breath Away)
TTITLE6=Woman In Love
TTITLE7=Wheels Of Fire
TTITLE8=Love For Sale
TTITLE9=Broken Heroes
TTITLE10=For The Good Years
TTITLE11=Hunters Of The Night
TTITLE12=It's A Tragedy
TTITLE13=Here Comes The Night
TTITLE14=She Said She Was A Lucky Girl
TTITLE15=Till The Night We Meet Again
EXTD=
EXTT0=
EXTT1=
EXTT2=
EXTT3=
EXTT4=
EXTT5=
EXTT6=
EXTT7=
EXTT8=
EXTT9=
EXTT10=
EXTT11=
EXTT12=
EXTT13=
EXTT14=
EXTT15=
PLAYORDER=
